HIERARCHY
ROOT Hips
{
  OFFSET 71.7574 47.5266 353.468
  CHANNELS 6 Xposition Yposition Zposition Zrotation Xrotation Yrotation
  JOINT Spine
  {
    OFFSET 0.0 0.0 0.0
    CHANNELS 3 Zrotation Xrotation Yrotation
    JOINT Spine1
    {
      OFFSET 38.68 0.0 0.0
      CHANNELS 3 Zrotation Xrotation Yrotation
      JOINT Neck
      {
        OFFSET 0.0 0.0 0.0
        CHANNELS 3 Zrotation Xrotation Yrotation
        JOINT Head
        {
          OFFSET 0.0 0.0 0.0
          CHANNELS 3 Zrotation Xrotation Yrotation
          End Site
          {
            OFFSET 17 0 0
          }
        }
      }
      JOINT LeftShoulder
      {
        OFFSET 0.0 0.0 14.2
        CHANNELS 3 Zrotation Xrotation Yrotation
        JOINT LeftArm
        {
          OFFSET 0.0 0.0 0.0
          CHANNELS 3 Zrotation Xrotation Yrotation
          JOINT LeftForeArm
          {
            OFFSET 21.3 0.0 0.0
            CHANNELS 3 Zrotation Xrotation Yrotation
            JOINT LeftHand
            {
              OFFSET 21.3 0.0 0.0
              CHANNELS 3 Zrotation Xrotation Yrotation
              End Site
              {
                OFFSET 7.2 0 0
              }
            }
          }
        }
      }
      JOINT RightShoulder
      {
        OFFSET 0.0 0.0 -14.2
        CHANNELS 3 Zrotation Xrotation Yrotation
        JOINT RightArm
        {
          OFFSET 0.0 0.0 0.0
          CHANNELS 3 Zrotation Xrotation Yrotation
          JOINT RightForeArm
          {
            OFFSET 21.3 0.0 0.0
            CHANNELS 3 Zrotation Xrotation Yrotation
            JOINT RightHand
            {
              OFFSET 21.3 0.0 0.0
              CHANNELS 3 Zrotation Xrotation Yrotation
              End Site
              {
                OFFSET 7.2 0 0
              }
            }
          }
        }
      }
    }
  }
  JOINT LeftUpLeg
  {
    OFFSET 0.0 0.0 14.2
    CHANNELS 3 Zrotation Xrotation Yrotation
    JOINT LeftLeg
    {
      OFFSET 21.3 0.0 0.0
      CHANNELS 3 Zrotation Xrotation Yrotation
      JOINT LeftFoot
      {
        OFFSET 21.3 0.0 0.0
        CHANNELS 3 Zrotation Xrotation Yrotation
        End Site
        {
          OFFSET 0 -10.8 0
        }
      }
    }
  }
  JOINT RightUpLeg
  {
    OFFSET 0.0 0.0 -14.2
    CHANNELS 3 Zrotation Xrotation Yrotation
    JOINT RightLeg
    {
      OFFSET 21.3 0.0 0.0
      CHANNELS 3 Zrotation Xrotation Yrotation
      JOINT RightFoot
      {
        OFFSET 21.3 0.0 0.0
        CHANNELS 3 Zrotation Xrotation Yrotation
        End Site
        {
          OFFSET 0 -10.8 0
        }
      }
    }
  }
  JOINT Tail
  {
    OFFSET 0.0 0.0 0.0
    CHANNELS 3 Zrotation Xrotation Yrotation
    JOINT Tail1
    {
      OFFSET 0.0 0.0 0.0
      CHANNELS 3 Zrotation Xrotation Yrotation
      End Site
      {
        OFFSET 12 0 0
      }
    }
  }
}
MOTION
Frames:	17
Frame Time:	0.0166667
5.01606 47.2202 181.233 -5.81453 8.01872 41.3234 -168.914 3.23381 -17.4274 -14.2816 -7.13017 41.6409 -17.3403 -7.53396 20.5687 -109.379 77.4681 123.256 -111.34 -37.5132 -138.807 126.487 -36.1037 -121.208 -51.7915 16.9198 -12.249 -5.07601 1.74679 -14.9612 78.3977 -24.2286 41.1089 26.5753 -47.9463 -46.9046 -50.9591 -18.1544 0.0362065 -14.0681 0.255692 3.01576 -127.443 2.49435 -26.0323 71.7367 18.5014 13.6388 44.9685 -5.09507 -8.84039 -116.54 -4.33684 -10.7384 71.1966 -9.89026 1.35038 67.0284 1.32862 -1.85728 -54.9515 5.13303 12.2864 -1.76764 -36.9441 1.08801 
5.03714 47.2284 181.398 -5.78455 8.21145 41.0135 -169.261 3.30643 -17.6749 -13.858 -7.0622 42.1237 -17.7497 -6.08534 19.2702 -112.399 79.6154 126.444 -111.348 -37.5114 -138.831 126.247 -36.1714 -121.7 -51.9531 16.9808 -12.1024 -4.84591 1.70529 -14.9484 78.3486 -24.2268 40.8804 26.7385 -47.4893 -46.9054 -50.7962 -18.247 0.151231 -14.1869 0.279443 2.90976 -127.4 2.32905 -25.9988 71.8007 18.335 13.5931 44.8174 -5.02789 -8.75858 -116.639 -4.47605 -10.739 71.1138 -9.97382 1.46041 67.3247 1.3324 -1.8754 -55.2937 7.06434 8.42877 -3.10297 -33.6311 -1.20267 
5.07291 47.2342 181.539 -5.81607 8.26407 40.6531 -169.411 3.362 -17.7882 -13.5647 -6.95583 42.3245 -18.1591 -4.63386 17.823 -116.819 81.7195 131.002 -111.34 -37.7175 -138.422 126.705 -36.5307 -121.586 -51.6493 16.9448 -11.9031 -4.67674 1.6745 -14.98 78.3215 -24.2129 40.7128 26.8438 -47.1603 -46.9503 -50.6377 -18.4406 0.293457 -14.3031 0.277317 2.93025 -127.251 2.18886 -25.8006 71.9559 18.0798 13.5028 44.7359 -4.96882 -8.69206 -116.552 -4.81431 -10.7628 71.0644 -10.2709 1.63333 67.3194 1.34712 -1.86375 -55.1592 8.95229 4.56713 -3.89905 -29.4607 -3.02639 
5.12147 47.2305 181.662 -5.81042 8.27751 40.1709 -169.591 3.43154 -17.9219 -13.3217 -6.80268 42.3766 -18.6063 -3.08925 16.0374 -123.631 83.5413 138.291 -111.348 -37.8728 -138.153 127.333 -36.8312 -121.492 -51.3274 16.6837 -11.5809 -4.49603 1.66535 -15.1054 78.3433 -24.1711 40.6773 26.9935 -46.832 -46.9899 -50.3908 -18.6033 0.45145 -14.4595 0.271595 2.94206 -127.206 2.02757 -25.528 72.2601 17.808 13.3367 44.8193 -4.90118 -8.60633 -116.444 -5.27609 -10.7687 71.0293 -10.729 1.85026 67.2381 1.37447 -1.83679 -54.6554 10.6273 0.825087 -4.20904 -24.5346 -4.47816 
5.17421 47.2411 181.78 -5.76203 8.36752 39.6039 -169.814 3.53138 -17.9444 -13.2045 -6.57892 42.0878 -18.803 -1.63618 14.4349 -137.06 85.4725 151.75 -111.377 -37.8118 -138.34 127.515 -36.9662 -121.971 -51.3363 16.4828 -11.1945 -4.3258 1.64342 -15.1882 78.4455 -24.0446 40.7333 27.0967 -46.6216 -46.9782 -50.1815 -18.6706 0.530505 -14.5564 0.279206 2.92457 -127.281 1.78938 -25.3498 72.5802 17.4336 13.1809 44.953 -4.80362 -8.47358 -116.498 -5.49268 -10.5226 70.9415 -11.2033 1.90623 67.5218 1.42092 -1.81999 -53.8622 12.0369 -2.89119 -3.97287 -19.2857 -5.49385 
5.22264 47.2324 181.9 -5.69295 8.52167 38.9713 -170.168 3.63141 -17.9161 -12.9299 -6.29109 41.71 -18.8921 -0.179584 12.6067 -156.042 86.3916 170.506 -111.303 -37.7968 -138.18 127.886 -37.2573 -122.219 -51.2225 16.4237 -10.8475 -4.26441 1.63152 -15.3376 78.3552 -24.1374 40.6225 27.2943 -46.4124 -47.0904 -49.9742 -18.8346 0.660582 -14.6781 0.289236 2.92584 -127.418 1.56194 -25.1372 73.0224 16.8174 12.9931 44.8257 -4.65177 -8.28939 -116.606 -5.69539 -10.3457 70.9282 -11.2995 1.97829 67.4295 1.43073 -1.80866 -52.8449 13.1084 -6.43244 -3.49112 -14.4291 -6.10586 
5.27013 47.2136 182.009 -5.66177 8.54809 38.3262 -170.295 3.68015 -17.7447 -12.8258 -6.01498 41.0392 -18.8033 1.00628 10.7347 -169.242 86.5452 -176.539 -111.243 -37.7714 -138.076 128.211 -37.5624 -122.476 -51.1051 16.4472 -10.4496 -4.51708 1.71428 -15.8089 78.2924 -24.2311 40.6396 27.3741 -46.43 -47.2341 -49.8865 -18.7677 0.614495 -14.9281 0.22932 3.18149 -127.439 1.2322 -24.9034 73.4264 16.2703 12.8378 44.6979 -4.51112 -8.11448 -116.618 -6.02499 -10.2718 71.0212 -11.2406 2.14894 67.2109 1.4172 -1.80766 -51.5185 13.9389 -9.70313 -2.96478 -10.041 -6.55659 
5.32423 47.2165 182.098 -5.60879 8.38329 37.6829 -170.193 3.6435 -17.3982 -12.8952 -5.77139 40.0116 -18.5751 1.95345 9.05639 -177.61 86.5202 -168.521 -111.255 -37.7363 -138.173 128.439 -37.7137 -122.632 -50.9619 16.3366 -10.1887 -4.82244 1.83154 -16.304 78.2945 -24.2703 40.7747 27.4252 -46.6217 -47.3603 -49.8742 -18.7173 0.568426 -15.0978 0.156193 3.50748 -127.346 0.772052 -24.6044 73.6966 15.8157 12.7487 44.8071 -4.40914 -7.97289 -116.571 -6.40613 -9.99503 71.1534 -11.4376 2.29373 67.1881 1.43151 -1.80015 -49.9837 14.6305 -12.6337 -2.34969 -6.27109 -6.87627 
5.37306 47.2112 182.184 -5.47304 8.31901 36.9785 -170.273 3.58141 -16.986 -12.8754 -5.497 38.7904 -18.3173 2.7836 7.47204 -178.233 86.2974 -168.065 -111.244 -37.6665 -138.276 128.42 -37.825 -122.869 -50.9463 16.1688 -10.0472 -5.01401 1.88757 -16.4814 78.2123 -24.3893 40.7853 27.6386 -46.6745 -47.6806 -49.7179 -18.8866 0.7433 -15.1911 0.131871 3.67934 -127.327 0.349966 -24.3832 73.7904 15.6859 12.758 45.0046 -4.36788 -7.90262 -116.759 -6.78699 -9.82076 71.3462 -11.5518 2.48412 67.2022 1.44084 -1.80468 -48.564 14.9926 -15.1703 -1.77464 -3.39322 -7.03299 
5.42489 47.2001 182.271 -5.37036 8.28965 36.248 -170.248 3.5043 -16.4015 -13.0221 -5.18118 37.1667 -18.1048 3.44873 6.11767 -174.71 86.0017 -171.514 -111.273 -37.6361 -138.405 128.227 -38.0437 -123.213 -50.9943 16.2925 -9.92007 -5.47602 1.97071 -16.6932 78.206 -24.4327 40.8952 27.8037 -46.834 -48.1165 -49.6818 -18.8215 0.860947 -15.1712 0.103554 3.86104 -127.326 0.00902834 -24.1484 73.963 15.5526 12.7093 45.1228 -4.31811 -7.82702 -116.967 -7.0909 -9.60492 71.5476 -11.4635 2.58458 67.0595 1.42259 -1.81639 -47.2115 15.0678 -17.2901 -1.26277 -1.22756 -7.12892 
5.49844 47.1966 182.348 -5.35829 8.14134 35.4325 -169.94 3.38046 -15.9225 -13.2962 -4.88303 35.5155 -17.8926 4.14984 4.9077 -176.48 85.8398 -170.138 -111.304 -37.6443 -138.47 128.1 -38.4023 -123.486 -51.2616 16.3539 -9.72116 -5.79879 2.05954 -16.9907 78.1093 -24.5983 40.9869 27.9717 -47.1273 -48.4664 -49.79 -18.9739 0.901397 -15.2092 0.0647784 4.11452 -127.185 -0.361167 -23.9374 74.201 15.3356 12.6913 45.1084 -4.26003 -7.75065 -117.054 -7.49968 -9.36516 71.8003 -11.5005 2.6928 66.9249 1.40825 -1.82048 -45.8455 14.8763 -18.8239 -0.813291 0.368023 -7.22889 
5.58457 47.1796 182.419 -5.40923 8.15687 34.5264 -169.803 3.30689 -15.6903 -13.3225 -4.52515 34.1556 -17.8931 4.60116 3.65421 -173.752 85.6589 -172.657 -111.222 -37.6554 -138.239 127.901 -38.7215 -123.659 -51.6431 16.4941 -9.56489 -6.10093 2.0679 -16.8998 77.7985 -24.9969 40.8638 28.1022 -47.4721 -48.8102 -49.9431 -19.3485 0.934881 -15.3351 -0.0174622 4.54782 -127.124 -0.627004 -23.9754 74.5203 15.1824 12.7313 45.2032 -4.21374 -7.68773 -117.239 -7.90676 -9.43925 72.0492 -11.5053 2.90663 66.8945 1.39409 -1.82978 -44.6974 14.3111 -19.8627 -0.414182 1.51287 -7.38223 
5.66207 47.1589 182.501 -5.44507 8.32283 33.5908 -169.785 3.26367 -15.3526 -13.3962 -4.10197 32.5362 -17.8474 4.86469 2.58741 -168.398 85.4186 -177.794 -111.166 -37.6214 -138.162 127.534 -38.9244 -123.976 -51.8666 16.7118 -9.50654 -6.621 2.09403 -16.7881 77.64 -25.181 40.745 28.3157 -47.5846 -49.2014 -49.8403 -19.6749 1.06363 -15.4928 -0.083809 4.90068 -127.113 -0.803747 -24.0204 74.8448 14.8583 12.7307 45.1542 -4.1281 -7.58206 -117.47 -8.20339 -9.53327 72.2081 -11.4652 3.09874 66.7325 1.38715 -1.82884 -43.8245 13.5044 -20.4561 -0.102976 2.23539 -7.5198 
5.72166 47.1635 182.597 -5.47302 8.52007 32.5947 -169.713 3.22189 -14.9977 -13.6576 -3.662 30.7097 -17.6027 5.32458 1.69962 -169.956 85.3387 -176.524 -111.153 -37.5059 -138.346 127.281 -39.0555 -124.378 -51.9145 16.5871 -9.446 -7.04816 2.17324 -16.9318 77.6927 -25.1144 40.7674 28.502 -47.4262 -49.6886 -49.4427 -19.8913 1.25992 -15.6782 -0.121198 5.09184 -127.005 -1.00807 -24.1469 74.9938 14.5566 12.8188 45.1297 -4.05808 -7.49412 -117.689 -8.3674 -9.46101 72.2468 -11.6179 3.23214 66.7683 1.42001 -1.81611 -43.1708 12.5597 -20.612 0.118049 2.58168 -7.56444 
5.78257 47.189 182.689 -5.42471 8.53537 31.6112 -169.681 3.13501 -14.7427 -13.725 -3.2878 29.1524 -17.6189 5.61761 0.667207 -168.765 85.2462 -177.214 -111.107 -37.4611 -138.311 127.324 -39.1962 -124.525 -51.9208 16.4426 -9.32714 -7.30641 2.1568 -16.7239 77.6551 -25.1835 40.8171 28.633 -47.374 -50.1095 -49.2211 -20.0631 1.42775 -15.8036 -0.166494 5.31345 -126.823 -1.39078 -24.0934 75.0138 14.3149 12.8713 45.3094 -4.00102 -7.4071 -117.795 -8.45514 -8.99498 72.2144 -11.6293 3.20712 66.786 1.43577 -1.81313 -42.7224 11.7225 -20.2615 0.238273 2.65274 -7.55041 
5.85002 47.213 182.776 -5.35114 8.45417 30.6614 -169.661 3.03894 -14.5836 -13.7187 -2.97705 27.8613 -17.7653 5.81918 -0.43525 -168.169 85.2597 -176.877 -111.036 -37.441 -138.169 127.656 -39.4555 -124.671 -51.962 16.2104 -9.04184 -7.78898 2.41567 -17.6429 77.5472 -25.3323 40.8088 28.842 -47.4451 -50.3041 -49.0916 -20.2205 1.56064 -15.7935 -0.169983 5.40921 -126.603 -1.63485 -23.6773 75.034 14.1501 12.7687 45.5903 -3.96332 -7.34567 -117.778 -8.58306 -8.38173 72.1625 -11.6889 3.14368 66.6432 1.45211 -1.7995 -42.4317 10.9169 -19.4978 0.223321 2.48936 -7.48783 
5.91447 47.2315 182.859 -5.39381 8.54953 29.7395 -169.646 3.02901 -14.532 -13.7528 -2.61988 26.7252 -17.7704 6.30713 -1.5328 -173.677 85.3603 -170.931 -110.938 -37.4226 -137.953 128.321 -39.6593 -124.617 -51.6783 15.5973 -8.75223 -8.21608 2.74183 -18.8377 77.441 -25.4826 40.8122 28.996 -47.4765 -50.6509 -48.9014 -19.9316 1.74493 -15.3763 -0.176738 5.4146 -126.434 -1.71515 -23.5027 75.1952 13.8482 12.7063 45.7353 -3.90695 -7.27375 -117.789 -8.60339 -8.02229 72.0829 -11.9041 3.12421 66.5766 1.50225 -1.76525 -42.3151 9.95521 -18.5996 0.164348 2.05672 -7.29364 
